<svg version="1.1" viewBox="0.0 0.0 960.0 720.0" fill="none" stroke="none" stroke-linecap="square" stroke-miterlimit="10" xmlns:xlink="http://www.w3.org/1999/xlink" xmlns="http://www.w3.org/2000/svg"><clipPath id="p.0"><path d="m0 0l960.0 0l0 720.0l-960.0 0l0 -720.0z" clip-rule="nonzero"/></clipPath><g clip-path="url(#p.0)"><path fill="#000000" fill-opacity="0.0" d="m0 0l960.0 0l0 720.0l-960.0 0z" fill-rule="evenodd"/><path fill="#000000" fill-opacity="0.0" d="m0 10.0l960.0 0l0 709.98425l-960.0 0z" fill-rule="evenodd"/><path fill="#80dfff" d="m113.07745 291.0l0.53125 66.671875l-2.140625 92.265625q0.53125 2.125 1.59375 2.125q1.078125 0 1.609375 -1.0625q10.671875 -14.9375 26.390625 -14.9375q15.734375 0 15.734375 6.40625q0 20.265625 7.734375 31.203125q7.734375 10.921875 21.859375 10.921875q14.140625 0 27.203125 -19.1875q13.078125 -19.203125 13.078125 -51.203125q0 -10.671875 -4.265625 -25.609375q-8.53125 -29.859375 -32.0 -39.984375q-17.0625 -6.9375 -55.46875 -6.9375q-4.265625 0 -4.265625 -5.875q0 -29.859375 10.671875 -30.921875q14.390625 0 30.390625 -7.46875q32.0 -14.9375 32.0 -61.34375q0 -50.125 -57.59375 -50.125l-16.53125 1.0625q-9.609375 2.140625 -10.671875 8.0l0 1.609375q-5.859375 21.328125 -5.859375 94.390625zm-78.40625 247.46875l1.0625 -5.875q5.34375 -9.59375 9.0625 -78.125q3.734375 -68.53125 3.734375 -128.0q0 -59.46875 -2.40625 -95.46875q-2.390625 -36.0 -13.046875 -52.0q-2.140625 -2.65625 -2.140625 -6.390625q0 -3.734375 6.40625 -6.40625q43.734375 -17.0625 118.921875 -17.0625q18.671875 0 40.53125 5.0625q21.875 5.0625 36.0 12.53125q14.140625 7.46875 25.609375 22.9375q11.46875 15.46875 13.0625 36.796875q0 77.328125 -64.0 89.0625q-3.203125 1.078125 -3.203125 2.40625q0 1.328125 2.671875 2.9375q33.0625 5.328125 55.46875 26.65625q11.203125 10.140625 20.265625 31.46875q9.0625 21.328125 9.0625 49.0625q0 35.734375 -20.796875 67.734375q-17.0625 26.140625 -49.59375 37.34375q-18.140625 6.390625 -40.546875 6.390625q-56.0 0 -70.921875 -35.734375q-0.53125 -1.59375 -1.609375 -1.59375l-2.125 2.125q-11.203125 37.34375 -64.0 38.9375q-7.46875 0 -7.46875 -4.796875zm455.98892 -167.46875l-1.0625 68.265625q0 70.9375 15.46875 85.328125q2.140625 2.140625 2.140625 4.8125q0 8.0 -34.40625 8.0q-34.40625 0 -36.53125 -20.265625q-0.53125 -4.8125 -0.53125 -19.734375l2.125 -85.34375q0 -3.734375 -4.265625 -3.734375q-25.59375 0 -48.0 14.40625q-22.390625 14.40625 -22.390625 36.796875q0 11.734375 6.390625 19.734375q6.40625 8.0 15.734375 8.0q9.328125 0 15.46875 -3.734375q6.140625 -3.734375 7.203125 -4.265625q9.0625 1.0625 9.0625 18.9375q0 17.859375 -16.53125 28.796875q-16.53125 10.9375 -34.671875 10.9375q-18.125 0 -31.203125 -6.40625q-13.0625 -6.390625 -18.9375 -14.390625q-5.859375 -8.0 -9.59375 -18.140625q-3.734375 -12.265625 -3.734375 -21.328125q0 -37.34375 23.46875 -59.734375q23.46875 -22.40625 60.265625 -32.0q48.53125 -9.609375 50.671875 -17.609375q1.59375 -5.859375 1.59375 -19.71875q0 -28.28125 -28.796875 -28.28125q-12.265625 0 -21.875 7.734375q-9.59375 7.734375 -9.59375 19.46875l3.203125 12.796875q-1.0625 9.078125 -19.203125 10.671875l-5.859375 0.53125q-16.0 0 -25.34375 -8.0q-9.328125 -8.0 -9.328125 -21.328125q0 -8.53125 5.59375 -18.921875q5.609375 -10.40625 14.140625 -16.8125q8.53125 -6.40625 26.390625 -11.46875q17.875 -5.0625 34.40625 -5.0625q16.53125 0 25.59375 1.0625q9.078125 1.0625 24.8125 5.0625q15.734375 4.0 26.125 15.203125q10.40625 11.203125 11.203125 23.734375q0.796875 12.53125 0.796875 36.0zm140.27396 -24.0l-12.265625 3.203125q-9.609375 0 -9.609375 -17.859375q0 -17.875 13.0625 -28.796875q13.078125 -10.9375 33.34375 -10.9375q11.203125 0 24.0 6.671875q12.796875 6.65625 21.328125 16.53125q8.53125 9.859375 15.203125 30.921875q6.671875 21.0625 6.671875 49.328125q0 65.078125 -34.9375 105.609375q-34.9375 40.53125 -101.0625 40.53125q-19.203125 0 -37.875 -3.734375l-5.328125 -1.0625q-6.9375 -2.140625 -8.0 -7.46875q-1.59375 -11.203125 -1.59375 -52.796875l3.1875 -172.8125q0 -39.984375 -2.125 -61.328125l-1.0625 -7.46875q-1.078125 -14.921875 -6.140625 -25.59375q-5.0625 -10.671875 -9.859375 -13.875l-4.265625 -2.65625q-3.734375 -2.140625 -3.734375 -4.796875q0 -8.0 26.65625 -18.9375q26.671875 -10.9375 38.9375 -10.9375q12.265625 0 12.796875 6.40625q3.734375 32.53125 3.734375 92.796875l-2.671875 128.0q0 83.734375 4.8125 115.734375q0.53125 7.46875 16.796875 7.46875q16.265625 0 28.0 -9.0625q11.734375 -9.078125 17.59375 -24.015625q10.671875 -27.1875 10.671875 -60.265625q0 -15.46875 -4.265625 -33.59375q-7.46875 -35.203125 -32.0 -35.203125zm293.8551 24.0l-1.0625 68.265625q0 70.9375 15.46875 85.328125q2.140625 2.140625 2.140625 4.8125q0 8.0 -34.40625 8.0q-34.40625 0 -36.53125 -20.265625q-0.53125 -4.8125 -0.53125 -19.734375l2.125 -85.34375q0 -3.734375 -4.265625 -3.734375q-25.59375 0 -48.0 14.40625q-22.390625 14.40625 -22.390625 36.796875q0 11.734375 6.390625 19.734375q6.40625 8.0 15.734375 8.0q9.328125 0 15.46875 -3.734375q6.140625 -3.734375 7.203125 -4.265625q9.0625 1.0625 9.0625 18.9375q0 17.859375 -16.53125 28.796875q-16.53125 10.9375 -34.671875 10.9375q-18.125 0 -31.203125 -6.40625q-13.0625 -6.390625 -18.9375 -14.390625q-5.859375 -8.0 -9.59375 -18.140625q-3.734375 -12.265625 -3.734375 -21.328125q0 -37.34375 23.46875 -59.734375q23.46875 -22.40625 60.265625 -32.0q48.53125 -9.609375 50.671875 -17.609375q1.59375 -5.859375 1.59375 -19.71875q0 -28.28125 -28.796875 -28.28125q-12.265625 0 -21.875 7.734375q-9.59375 7.734375 -9.59375 19.46875l3.203125 12.796875q-1.0625 9.078125 -19.203125 10.671875l-5.859375 0.53125q-16.0 0 -25.34375 -8.0q-9.328125 -8.0 -9.328125 -21.328125q0 -8.53125 5.59375 -18.921875q5.609375 -10.40625 14.140625 -16.8125q8.53125 -6.40625 26.390625 -11.46875q17.875 -5.0625 34.40625 -5.0625q16.53125 0 25.59375 1.0625q9.078125 1.0625 24.8125 5.0625q15.734375 4.0 26.125 15.203125q10.40625 11.203125 11.203125 23.734375q0.796875 12.53125 0.796875 36.0z" fill-rule="nonzero"/></g></svg>