<svg version="1.1" viewBox="0.0 0.0 468.0 524.0" fill="none" stroke="none" stroke-linecap="square" stroke-miterlimit="10" xmlns:xlink="http://www.w3.org/1999/xlink" xmlns="http://www.w3.org/2000/svg"><clipPath id="p.0"><path d="m0 0l468.0 0l0 524.0l-468.0 0l0 -524.0z" clip-rule="nonzero"/></clipPath><g clip-path="url(#p.0)"><path fill="#000000" fill-opacity="0.0" d="m0 0l468.0 0l0 524.0l-468.0 0z" fill-rule="evenodd"/><path fill="#000000" fill-opacity="0.0" d="m0 -88.0l616.0 0l0 448.0l-616.0 0z" fill-rule="evenodd"/><path fill="#80dfff" d="m103.40625 193.0l0.53125 66.671875l-2.140625 92.265625q0.53125 2.125 1.59375 2.125q1.078125 0 1.609375 -1.0625q10.671875 -14.9375 26.390625 -14.9375q15.734375 0 15.734375 6.40625q0 20.265625 7.734375 31.203125q7.734375 10.921875 21.859375 10.921875q14.140625 0 27.203125 -19.1875q13.078125 -19.203125 13.078125 -51.203125q0 -10.671875 -4.265625 -25.609375q-8.53125 -29.859375 -32.0 -39.984375q-17.0625 -6.9375 -55.46875 -6.9375q-4.265625 0 -4.265625 -5.875q0 -29.859375 10.671875 -30.921875q14.390625 0 30.390625 -7.46875q32.0 -14.9375 32.0 -61.34375q0 -50.125 -57.59375 -50.125l-16.53125 1.0625q-9.609375 2.140625 -10.671875 8.0l0 1.609375q-5.859375 21.328125 -5.859375 94.390625zm-78.40625 247.46875l1.0625 -5.875q5.34375 -9.59375 9.0625 -78.125q3.734375 -68.53125 3.734375 -128.0q0 -59.46875 -2.40625 -95.46875q-2.390625 -36.0 -13.046875 -52.0q-2.140625 -2.65625 -2.140625 -6.390625q0 -3.734375 6.40625 -6.40625q43.734375 -17.0625 118.921875 -17.0625q18.671875 0 40.53125 5.0625q21.875 5.0625 36.0 12.53125q14.140625 7.46875 25.609375 22.9375q11.46875 15.46875 13.0625 36.796875q0 77.328125 -64.0 89.0625q-3.203125 1.078125 -3.203125 2.40625q0 1.328125 2.671875 2.9375q33.0625 5.328125 55.46875 26.65625q11.203125 10.140625 20.265625 31.46875q9.0625 21.328125 9.0625 49.0625q0 35.734375 -20.796875 67.734375q-17.0625 26.140625 -49.59375 37.34375q-18.140625 6.390625 -40.546875 6.390625q-56.0 0 -70.921875 -35.734375q-0.53125 -1.59375 -1.609375 -1.59375l-2.125 2.125q-11.203125 37.34375 -64.0 38.9375q-7.46875 0 -7.46875 -4.796875zm301.86392 -106.140625l1.0625 -107.71875q0 -126.40625 -12.265625 -142.9375q-5.859375 -7.46875 -5.859375 -10.390625q0 -2.9375 7.1875 -6.9375q7.203125 -4.0 28.0 -8.796875q20.8125 -4.8125 36.8125 -4.8125q16.0 0 16.0 7.46875l-1.078125 6.9375q-6.390625 57.59375 -6.390625 112.53125q0 54.9375 3.1875 122.671875q3.203125 67.71875 3.203125 99.71875q0 43.203125 -33.328125 74.40625q-33.328125 31.203125 -79.203125 33.859375q-9.0625 -1.0625 -9.0625 -6.390625q0 -3.734375 2.40625 -5.875q2.390625 -2.125 5.59375 -5.328125q3.203125 -3.203125 11.734375 -16.546875q8.53125 -13.328125 14.921875 -30.125q6.40625 -16.796875 11.734375 -46.65625q5.34375 -29.875 5.34375 -65.078125z" fill-rule="nonzero"/></g></svg>