<svg version="1.1" viewBox="0.0 0.0 2041.6010498687665 588.0" fill="none" stroke="none" stroke-linecap="square" stroke-miterlimit="10" xmlns:xlink="http://www.w3.org/1999/xlink" xmlns="http://www.w3.org/2000/svg"><clipPath id="p.0"><path d="m0 0l2041.6011 0l0 588.0l-2041.6011 0l0 -588.0z" clip-rule="nonzero"/></clipPath><g clip-path="url(#p.0)"><path fill="#000000" fill-opacity="0.0" d="m0 0l2041.6011 0l0 588.0l-2041.6011 0z" fill-rule="evenodd"/><path fill="#000000" fill-opacity="0.0" d="m-9.162729 0l2050.7717 0l0 596.0l-2050.7717 0z" fill-rule="evenodd"/><path fill="#80dfff" d="m672.5293 111.0l0.1875 25.0l-0.796875 34.59375q0.203125 0.8125 0.59375 0.8125q0.40625 0 0.609375 -0.40625q4.0 -5.59375 9.890625 -5.59375q5.90625 0 5.90625 2.390625q0 7.609375 2.890625 11.703125q2.90625 4.09375 8.203125 4.09375q5.3125 0 10.203125 -7.1875q4.90625 -7.203125 4.90625 -19.203125q0 -4.0 -1.59375 -9.609375q-3.203125 -11.1875 -12.0 -15.0q-6.40625 -2.59375 -20.8125 -2.59375q-1.59375 0 -1.59375 -2.203125q0 -11.203125 4.0 -11.59375q5.40625 0 11.40625 -2.796875q12.0 -5.609375 12.0 -23.0q0 -18.8125 -21.609375 -18.8125l-6.203125 0.40625q-3.59375 0.796875 -4.0 3.0l0 0.59375q-2.1875 8.0 -2.1875 35.40625zm-29.40625 92.796875l0.40625 -2.203125q2.0 -3.59375 3.390625 -29.296875q1.40625 -25.703125 1.40625 -48.0q0 -22.296875 -0.90625 -35.796875q-0.890625 -13.5 -4.890625 -19.5q-0.8125 -1.0 -0.8125 -2.390625q0 -1.40625 2.40625 -2.40625q16.40625 -6.40625 44.59375 -6.40625q7.0 0 15.203125 1.90625q8.203125 1.890625 13.5 4.703125q5.296875 2.796875 9.59375 8.59375q4.3125 5.796875 4.90625 13.796875q0 29.0 -24.0 33.40625q-1.203125 0.390625 -1.203125 0.890625q0 0.5 1.0 1.109375q12.40625 2.0 20.8125 10.0q4.1875 3.796875 7.59375 11.796875q3.40625 8.0 3.40625 18.40625q0 13.390625 -7.8125 25.390625q-6.390625 9.796875 -18.59375 14.0q-6.796875 2.40625 -15.203125 2.40625q-21.0 0 -26.59375 -13.40625q-0.203125 -0.59375 -0.609375 -0.59375l-0.796875 0.796875q-4.203125 14.0 -24.0 14.59375q-2.796875 0 -2.796875 -1.796875zm170.99689 -62.796875l-0.390625 25.59375q0 26.609375 5.796875 32.0q0.796875 0.8125 0.796875 1.8125q0 3.0 -12.90625 3.0q-12.890625 0 -13.6875 -7.609375q-0.203125 -1.796875 -0.203125 -7.390625l0.796875 -32.0q0 -1.40625 -1.59375 -1.40625q-9.609375 0 -18.015625 5.40625q-8.390625 5.390625 -8.390625 13.796875q0 4.390625 2.390625 7.390625q2.40625 3.0 5.90625 3.0q3.5 0 5.796875 -1.390625q2.3125 -1.40625 2.703125 -1.609375q3.40625 0.40625 3.40625 7.109375q0 6.703125 -6.203125 10.796875q-6.203125 4.09375 -13.0 4.09375q-6.796875 0 -11.703125 -2.40625q-4.890625 -2.390625 -7.09375 -5.390625q-2.203125 -3.0 -3.609375 -6.796875q-1.390625 -4.59375 -1.390625 -8.0q0 -14.0 8.796875 -22.390625q8.796875 -8.40625 22.59375 -12.015625q18.203125 -3.59375 19.0 -6.59375q0.609375 -2.203125 0.609375 -7.40625q0 -10.59375 -10.796875 -10.59375q-4.609375 0 -8.21875 2.90625q-3.59375 2.890625 -3.59375 7.296875l1.203125 4.796875q-0.390625 3.40625 -7.203125 4.0l-2.1875 0.203125q-6.0 0 -9.5 -3.0q-3.5 -3.0 -3.5 -8.0q0 -3.203125 2.09375 -7.09375q2.09375 -3.90625 5.296875 -6.296875q3.203125 -2.40625 9.90625 -4.3125q6.703125 -1.90625 12.890625 -1.90625q6.203125 0 9.59375 0.40625q3.40625 0.40625 9.3125 1.90625q5.90625 1.5 9.796875 5.703125q3.90625 4.1875 4.203125 8.890625q0.296875 4.703125 0.296875 13.5zm52.609436 -9.0l-4.609375 1.203125q-3.59375 0 -3.59375 -6.703125q0 -6.703125 4.890625 -10.796875q4.90625 -4.109375 12.5 -4.109375q4.203125 0 9.0 2.5q4.8125 2.5 8.0 6.203125q3.203125 3.703125 5.703125 11.609375q2.5 7.890625 2.5 18.5q0 24.390625 -13.109375 39.59375q-13.09375 15.203125 -37.890625 15.203125q-7.203125 0 -14.203125 -1.40625l-2.0 -0.390625q-2.59375 -0.8125 -3.0 -2.8125q-0.59375 -4.1875 -0.59375 -19.796875l1.203125 -64.796875q0 -15.0 -0.796875 -23.0l-0.40625 -2.796875q-0.40625 -5.609375 -2.3125 -9.609375q-1.890625 -4.0 -3.6875 -5.1875l-1.59375 -1.0q-1.40625 -0.8125 -1.40625 -1.8125q0 -3.0 10.0 -7.09375q10.0 -4.09375 14.59375 -4.09375q4.609375 0 4.8125 2.390625q1.390625 12.203125 1.390625 34.796875l-1.0 48.0q0 31.40625 1.796875 43.40625q0.203125 2.796875 6.296875 2.796875q6.109375 0 10.5 -3.390625q4.40625 -3.40625 6.609375 -9.0q4.0 -10.203125 4.0 -22.609375q0 -5.796875 -1.59375 -12.59375q-2.8125 -13.203125 -12.0 -13.203125zm110.19061 9.0l-0.390625 25.59375q0 26.609375 5.796875 32.0q0.796875 0.8125 0.796875 1.8125q0 3.0 -12.90625 3.0q-12.890625 0 -13.6875 -7.609375q-0.203125 -1.796875 -0.203125 -7.390625l0.796875 -32.0q0 -1.40625 -1.59375 -1.40625q-9.609375 0 -18.015625 5.40625q-8.390625 5.390625 -8.390625 13.796875q0 4.390625 2.390625 7.390625q2.40625 3.0 5.90625 3.0q3.5 0 5.796875 -1.390625q2.3125 -1.40625 2.703125 -1.609375q3.40625 0.40625 3.40625 7.109375q0 6.703125 -6.203125 10.796875q-6.203125 4.09375 -13.0 4.09375q-6.796875 0 -11.703125 -2.40625q-4.890625 -2.390625 -7.09375 -5.390625q-2.203125 -3.0 -3.609375 -6.796875q-1.390625 -4.59375 -1.390625 -8.0q0 -14.0 8.796875 -22.390625q8.796875 -8.40625 22.59375 -12.015625q18.203125 -3.59375 19.0 -6.59375q0.609375 -2.203125 0.609375 -7.40625q0 -10.59375 -10.796875 -10.59375q-4.609375 0 -8.21875 2.90625q-3.59375 2.890625 -3.59375 7.296875l1.203125 4.796875q-0.390625 3.40625 -7.203125 4.0l-2.1875 0.203125q-6.0 0 -9.5 -3.0q-3.5 -3.0 -3.5 -8.0q0 -3.203125 2.09375 -7.09375q2.09375 -3.90625 5.296875 -6.296875q3.203125 -2.40625 9.90625 -4.3125q6.703125 -1.90625 12.890625 -1.90625q6.203125 0 9.59375 0.40625q3.40625 0.40625 9.3125 1.90625q5.90625 1.5 9.796875 5.703125q3.90625 4.1875 4.203125 8.890625q0.296875 4.703125 0.296875 13.5zm21.203125 23.0l0.40625 -40.40625q0 -47.390625 -4.609375 -53.59375q-2.203125 -2.796875 -2.203125 -3.890625q0 -1.109375 2.703125 -2.609375q2.703125 -1.5 10.5 -3.296875q7.796875 -1.796875 13.796936 -1.796875q6.0 0 6.0 2.796875l-0.390625 2.59375q-2.40625 21.609375 -2.40625 42.203125q0 20.59375 1.203125 46.0q1.203125 25.40625 1.203125 37.40625q0 16.1875 -12.500061 27.890625q-12.5 11.703125 -29.703125 12.703125q-3.40625 -0.40625 -3.40625 -2.40625q0 -1.390625 0.90625 -2.203125q0.90625 -0.796875 2.109375 -2.0q1.1875 -1.1875 4.390625 -6.1875q3.203125 -5.0 5.59375 -11.3125q2.40625 -6.296875 4.40625 -17.484375q2.0 -11.203125 2.0 -24.40625zm59.993713 -38.40625q-5.1875 0.203125 -7.5 0.3125q-2.296875 0.09375 -2.296875 -1.109375q0 -1.203125 1.203125 -2.390625q12.796875 -11.8125 43.203125 -11.8125q10.390625 0 16.390625 1.8125l2.0 0.59375q2.40625 1.0 2.40625 2.203125q0 1.0 -1.40625 1.59375q-5.390625 1.609375 -10.390625 5.109375q-5.0 3.5 -5.0 4.890625l1.203125 1.40625q6.390625 3.59375 9.890625 11.40625q3.5 7.796875 3.90625 13.796875l0.390625 6.1875q0 19.8125 -11.0 32.609375q-11.0 12.796875 -30.0 12.796875q-9.59375 0 -16.59375 -3.40625q-7.0 -3.390625 -10.296875 -7.6875q-3.296875 -4.3125 -5.296875 -9.703125q-2.40625 -7.40625 -2.40625 -15.296875q0 -7.90625 2.703125 -15.90625q2.703125 -8.0 6.203125 -11.796875q3.5 -3.796875 7.890625 -6.203125q5.609375 -3.0 9.0 -3.0q3.40625 0 3.40625 1.40625l-1.203125 2.0q-4.40625 5.1875 -6.3125 13.59375q-1.890625 8.40625 -1.890625 14.90625q0 6.5 1.59375 12.90625q1.609375 6.390625 3.609375 9.5q2.0 3.09375 4.59375 4.6875q3.8125 2.40625 8.0 2.40625q4.203125 0 8.203125 -3.296875q4.0 -3.3125 5.796875 -8.703125q3.609375 -10.0 3.609375 -20.609375q0 -16.796875 -8.5 -26.0q-8.5 -9.203125 -25.109375 -9.203125zm84.0 0q-5.1875 0.203125 -7.5 0.3125q-2.296875 0.09375 -2.296875 -1.109375q0 -1.203125 1.203125 -2.390625q12.796875 -11.8125 43.203125 -11.8125q10.390625 0 16.390625 1.8125l2.0 0.59375q2.40625 1.0 2.40625 2.203125q0 1.0 -1.40625 1.59375q-5.390625 1.609375 -10.390625 5.109375q-5.0 3.5 -5.0 4.890625l1.203125 1.40625q6.390625 3.59375 9.890625 11.40625q3.5 7.796875 3.90625 13.796875l0.390625 6.1875q0 19.8125 -11.0 32.609375q-11.0 12.796875 -30.0 12.796875q-9.59375 0 -16.59375 -3.40625q-7.0 -3.390625 -10.296875 -7.6875q-3.296875 -4.3125 -5.296875 -9.703125q-2.40625 -7.40625 -2.40625 -15.296875q0 -7.90625 2.703125 -15.90625q2.703125 -8.0 6.203125 -11.796875q3.5 -3.796875 7.890625 -6.203125q5.609375 -3.0 9.0 -3.0q3.40625 0 3.40625 1.40625l-1.203125 2.0q-4.40625 5.1875 -6.3125 13.59375q-1.890625 8.40625 -1.890625 14.90625q0 6.5 1.59375 12.90625q1.609375 6.390625 3.609375 9.5q2.0 3.09375 4.59375 4.6875q3.8125 2.40625 8.0 2.40625q4.203125 0 8.203125 -3.296875q4.0 -3.3125 5.796875 -8.703125q3.609375 -10.0 3.609375 -20.609375q0 -16.796875 -8.5 -26.0q-8.5 -9.203125 -25.109375 -9.203125zm63.806396 76.8125q3.59375 -21.609375 3.59375 -51.796875q0 -30.203125 -1.796875 -39.203125q0 -2.609375 6.0 -2.609375q9.203125 0 12.203125 7.0q0.203125 0.609375 1.0 0.609375q0.796875 0 1.203125 -0.40625q6.203125 -6.40625 19.203125 -6.40625q13.0 0 20.59375 6.609375q7.59375 6.59375 7.59375 19.203125q0 7.59375 -1.296875 21.59375q-1.296875 14.0 -1.296875 20.796875q0 16.203125 5.40625 23.40625q0.796875 1.0 0.796875 2.0q0 2.59375 -5.609375 2.59375q-24.796875 0 -24.796875 -22.0q0 -8.390625 3.796875 -23.390625q3.8125 -15.0 3.8125 -22.8125q0 -16.0 -13.203125 -16.0q-6.40625 0 -9.703125 3.8125q-3.296875 3.796875 -3.703125 8.703125q-0.390625 4.890625 -0.390625 18.484375q0 20.8125 1.390625 36.203125l0.40625 4.40625q0 5.59375 -7.3125 8.6875q-7.296875 3.109375 -12.59375 3.109375q-5.296875 0 -5.296875 -2.59375zm100.39368 -108.40625l-4.796875 -0.203125q-5.390625 0 -7.0 2.609375q-0.390625 0.59375 -1.0 0.59375q-2.59375 0 -2.59375 -8.890625q0 -8.90625 2.6875 -11.296875q2.703125 -2.40625 9.40625 -2.40625q6.703125 0 9.09375 2.296875q2.40625 2.296875 2.40625 7.703125q0 5.390625 -1.796875 7.5q-1.796875 2.09375 -6.40625 2.09375zm-16.0 101.0l2.203125 -46.59375q0 -16.609375 -3.796875 -22.609375q-1.203125 -2.0 -2.796875 -3.0q-1.203125 -0.390625 -1.203125 -1.59375q0 -3.609375 10.203125 -7.0q10.203125 -3.40625 14.890625 -3.40625q4.703125 0 4.90625 2.40625q0 4.0 -1.109375 22.703125q-1.09375 18.6875 -1.09375 39.296875q0 20.59375 2.40625 25.59375q0.59375 1.0 0.59375 2.0q0 2.609375 -7.609375 2.609375q-7.59375 0 -15.59375 -4.0q-2.0 -1.0 -2.0 -6.40625zm56.40625 -44.796875l0.203125 5.0q0 1.203125 1.59375 1.203125q6.40625 -0.609375 11.203125 -3.296875q4.796875 -2.703125 7.203125 -6.109375q4.796875 -7.40625 5.203125 -12.796875l0.1875 -2.40625q0 -10.796875 -8.59375 -10.796875q-6.40625 0 -10.40625 5.59375q-6.59375 8.8125 -6.59375 23.609375zm43.59375 26.59375q0 7.609375 -3.09375 13.3125q-3.09375 5.6875 -7.0 8.390625q-3.90625 2.703125 -9.09375 4.296875q-6.609375 2.0 -12.609375 2.0q-16.796875 0 -24.796875 -12.59375q-8.0 -12.609375 -8.0 -32.109375q0 -19.5 9.890625 -34.6875q9.90625 -15.203125 29.703125 -15.203125q18.0 0 24.40625 12.59375q2.59375 4.796875 2.59375 9.109375q0 4.296875 -0.40625 6.796875q-0.390625 2.5 -2.796875 7.5q-2.390625 5.0 -6.390625 9.0q-4.0 4.0 -12.609375 7.609375q-8.59375 3.59375 -20.1875 4.78125q-1.609375 0 -1.609375 1.40625q0 1.796875 1.296875 5.296875q1.3125 3.5 2.90625 5.90625q4.40625 5.59375 13.0 5.59375q8.609375 0 14.609375 -5.59375q3.1875 -3.0 5.1875 -7.40625q0.8125 -1.59375 2.109375 -1.59375q1.296875 0 2.09375 2.203125q0.796875 2.1875 0.796875 3.390625z" fill-rule="nonzero"/></g></svg>