<svg id="Layer_1" enable-background="new 0 0 496 496" height="512" viewBox="0 0 496 496" width="512" xmlns="http://www.w3.org/2000/svg"><path d="m492.512 217.142-93.294-117.058c-9.159-11.493-22.841-18.084-37.537-18.084h-313.681c-26.468 0-48 21.533-48 48v215c0 8.836 7.163 16 16 16h47.79c7.045 30.326 34.27 53 66.71 53s59.664-22.674 66.71-53h92.581c7.045 30.326 34.27 53 66.71 53s59.664-22.674 66.71-53h41.823c17.073 0 30.966-13.892 30.966-30.968v-102.918c0-3.623-1.229-7.139-3.488-9.972zm-118.319-97.114 67.723 84.972h-128.465c-3.558 0-6.451-2.894-6.451-6.452v-84.548h54.681c4.898 0 9.459 2.197 12.512 6.028zm-246.193-6.028h93v83c0 4.411-3.589 8-8 8h-77c-4.411 0-8-3.589-8-8zm2.5 268c-20.126 0-36.5-16.374-36.5-36.5s16.374-36.5 36.5-36.5 36.5 16.374 36.5 36.5-16.374 36.5-36.5 36.5zm226 0c-20.126 0-36.5-16.374-36.5-36.5s16.374-36.5 36.5-36.5 36.5 16.374 36.5 36.5-16.374 36.5-36.5 36.5zm66.478-53c-7.405-29.825-34.395-52-66.478-52s-59.073 22.175-66.478 52h-93.043c-7.405-29.825-34.395-52-66.478-52s-59.073 22.175-66.478 52h-32.023v-199c0-8.822 7.178-16 16-16h48v83c0 22.056 17.944 40 40 40h77c22.056 0 40-17.944 40-40v-83h22v84.548c0 21.202 17.249 38.452 38.451 38.452h150.549v24h-16.032c-8.837 0-16 7.164-16 16s7.163 16 16 16h16.032v36zm-292.478-2c-10.201 0-18.5 8.299-18.5 18.5s8.299 18.5 18.5 18.5 18.5-8.299 18.5-18.5-8.299-18.5-18.5-18.5zm226 0c-10.201 0-18.5 8.299-18.5 18.5s8.299 18.5 18.5 18.5 18.5-8.299 18.5-18.5-8.299-18.5-18.5-18.5z"/></svg>