<svg version="1.1" viewBox="0.0 0.0 2040.0 632.0" fill="none" stroke="none" stroke-linecap="square" stroke-miterlimit="10" xmlns:xlink="http://www.w3.org/1999/xlink" xmlns="http://www.w3.org/2000/svg"><clipPath id="p.0"><path d="m0 0l2040.0 0l0 632.0l-2040.0 0l0 -632.0z" clip-rule="nonzero"/></clipPath><g clip-path="url(#p.0)"><path fill="#000000" fill-opacity="0.0" d="m0 0l2040.0 0l0 632.0l-2040.0 0z" fill-rule="evenodd"/><path fill="#000000" fill-opacity="0.0" d="m0 0.002624672l2088.0 0l0 624.0l-2088.0 0z" fill-rule="evenodd"/><path stroke="#80dfff" stroke-width="1.0" stroke-linejoin="round" stroke-linecap="butt" d="m0 0.002624672l2088.0 0l0 624.0l-2088.0 0z" fill-rule="evenodd"/><path fill="#80dfff" d="m103.40625 281.00262l0.53125 66.671875l-2.140625 92.265625q0.53125 2.125 1.59375 2.125q1.078125 0 1.609375 -1.0625q10.671875 -14.9375 26.390625 -14.9375q15.734375 0 15.734375 6.40625q0 20.265625 7.734375 31.203125q7.734375 10.921875 21.859375 10.921875q14.140625 0 27.203125 -19.1875q13.078125 -19.203125 13.078125 -51.203125q0 -10.671875 -4.265625 -25.609375q-8.53125 -29.859375 -32.0 -39.984375q-17.0625 -6.9375 -55.46875 -6.9375q-4.265625 0 -4.265625 -5.875q0 -29.859375 10.671875 -30.921875q14.390625 0 30.390625 -7.46875q32.0 -14.9375 32.0 -61.34375q0 -50.125 -57.59375 -50.125l-16.53125 1.0625q-9.609375 2.140625 -10.671875 8.0l0 1.609375q-5.859375 21.328125 -5.859375 94.390625zm-78.40625 247.46875l1.0625 -5.875q5.34375 -9.59375 9.0625 -78.125q3.734375 -68.53125 3.734375 -128.0q0 -59.46875 -2.40625 -95.46875q-2.390625 -36.0 -13.046875 -52.0q-2.140625 -2.65625 -2.140625 -6.390625q0 -3.734375 6.40625 -6.40625q43.734375 -17.0625 118.921875 -17.0625q18.671875 0 40.53125 5.0625q21.875 5.0625 36.0 12.53125q14.140625 7.46875 25.609375 22.9375q11.46875 15.46875 13.0625 36.796875q0 77.328125 -64.0 89.0625q-3.203125 1.078125 -3.203125 2.40625q0 1.328125 2.671875 2.9375q33.0625 5.328125 55.46875 26.65625q11.203125 10.140625 20.265625 31.46875q9.0625 21.328125 9.0625 49.0625q0 35.734375 -20.796875 67.734375q-17.0625 26.140625 -49.59375 37.34375q-18.140625 6.390625 -40.546875 6.390625q-56.0 0 -70.921875 -35.734375q-0.53125 -1.59375 -1.609375 -1.59375l-2.125 2.125q-11.203125 37.34375 -64.0 38.9375q-7.46875 0 -7.46875 -4.796875zm455.98892 -167.46875l-1.0625 68.265625q0 70.9375 15.46875 85.328125q2.140625 2.140625 2.140625 4.8125q0 8.0 -34.40625 8.0q-34.40625 0 -36.53125 -20.265625q-0.53125 -4.8125 -0.53125 -19.734375l2.125 -85.34375q0 -3.734375 -4.265625 -3.734375q-25.59375 0 -48.0 14.40625q-22.390625 14.40625 -22.390625 36.796875q0 11.734375 6.390625 19.734375q6.40625 8.0 15.734375 8.0q9.328125 0 15.46875 -3.734375q6.140625 -3.734375 7.203125 -4.265625q9.0625 1.0625 9.0625 18.9375q0 17.859375 -16.53125 28.796875q-16.53125 10.9375 -34.671875 10.9375q-18.125 0 -31.203125 -6.40625q-13.0625 -6.390625 -18.9375 -14.390625q-5.859375 -8.0 -9.59375 -18.140625q-3.734375 -12.265625 -3.734375 -21.328125q0 -37.34375 23.46875 -59.734375q23.46875 -22.40625 60.265625 -32.0q48.53125 -9.609375 50.671875 -17.609375q1.59375 -5.859375 1.59375 -19.71875q0 -28.28125 -28.796875 -28.28125q-12.265625 0 -21.875 7.734375q-9.59375 7.734375 -9.59375 19.46875l3.203125 12.796875q-1.0625 9.078125 -19.203125 10.671875l-5.859375 0.53125q-16.0 0 -25.34375 -8.0q-9.328125 -8.0 -9.328125 -21.328125q0 -8.53125 5.59375 -18.921875q5.609375 -10.40625 14.140625 -16.8125q8.53125 -6.40625 26.390625 -11.46875q17.875 -5.0625 34.40625 -5.0625q16.53125 0 25.59375 1.0625q9.078125 1.0625 24.8125 5.0625q15.734375 4.0 26.125 15.203125q10.40625 11.203125 11.203125 23.734375q0.796875 12.53125 0.796875 36.0zm140.27396 -24.0l-12.265625 3.203125q-9.609375 0 -9.609375 -17.859375q0 -17.875 13.0625 -28.796875q13.078125 -10.9375 33.34375 -10.9375q11.203125 0 24.0 6.671875q12.796875 6.65625 21.328125 16.53125q8.53125 9.859375 15.203125 30.921875q6.671875 21.0625 6.671875 49.328125q0 65.078125 -34.9375 105.609375q-34.9375 40.53125 -101.0625 40.53125q-19.203125 0 -37.875 -3.734375l-5.328125 -1.0625q-6.9375 -2.140625 -8.0 -7.46875q-1.59375 -11.203125 -1.59375 -52.796875l3.1875 -172.8125q0 -39.984375 -2.125 -61.328125l-1.0625 -7.46875q-1.078125 -14.921875 -6.140625 -25.59375q-5.0625 -10.671875 -9.859375 -13.875l-4.265625 -2.65625q-3.734375 -2.140625 -3.734375 -4.796875q0 -8.0 26.65625 -18.9375q26.671875 -10.9375 38.9375 -10.9375q12.265625 0 12.796875 6.40625q3.734375 32.53125 3.734375 92.796875l-2.671875 128.0q0 83.734375 4.8125 115.734375q0.53125 7.46875 16.796875 7.46875q16.265625 0 28.0 -9.0625q11.734375 -9.078125 17.59375 -24.015625q10.671875 -27.1875 10.671875 -60.265625q0 -15.46875 -4.265625 -33.59375q-7.46875 -35.203125 -32.0 -35.203125zm293.8551 24.0l-1.0625 68.265625q0 70.9375 15.46875 85.328125q2.140625 2.140625 2.140625 4.8125q0 8.0 -34.40625 8.0q-34.40625 0 -36.53125 -20.265625q-0.53125 -4.8125 -0.53125 -19.734375l2.125 -85.34375q0 -3.734375 -4.265625 -3.734375q-25.59375 0 -48.0 14.40625q-22.390625 14.40625 -22.390625 36.796875q0 11.734375 6.390625 19.734375q6.40625 8.0 15.734375 8.0q9.328125 0 15.46875 -3.734375q6.140625 -3.734375 7.203125 -4.265625q9.0625 1.0625 9.0625 18.9375q0 17.859375 -16.53125 28.796875q-16.53125 10.9375 -34.671875 10.9375q-18.125 0 -31.203125 -6.40625q-13.0625 -6.390625 -18.9375 -14.390625q-5.859375 -8.0 -9.59375 -18.140625q-3.734375 -12.265625 -3.734375 -21.328125q0 -37.34375 23.46875 -59.734375q23.46875 -22.40625 60.265625 -32.0q48.53125 -9.609375 50.671875 -17.609375q1.59375 -5.859375 1.59375 -19.71875q0 -28.28125 -28.796875 -28.28125q-12.265625 0 -21.875 7.734375q-9.59375 7.734375 -9.59375 19.46875l3.203125 12.796875q-1.0625 9.078125 -19.203125 10.671875l-5.859375 0.53125q-16.0 0 -25.34375 -8.0q-9.328125 -8.0 -9.328125 -21.328125q0 -8.53125 5.59375 -18.921875q5.609375 -10.40625 14.140625 -16.8125q8.53125 -6.40625 26.390625 -11.46875q17.875 -5.0625 34.40625 -5.0625q16.53125 0 25.59375 1.0625q9.078125 1.0625 24.8125 5.0625q15.734375 4.0 26.125 15.203125q10.40625 11.203125 11.203125 23.734375q0.796875 12.53125 0.796875 36.0zm56.53961 61.328125l1.0625 -107.71875q0 -126.40625 -12.265625 -142.9375q-5.859375 -7.46875 -5.859375 -10.390625q0 -2.9375 7.1875 -6.9375q7.203125 -4.0 28.0 -8.796875q20.8125 -4.8125 36.8125 -4.8125q16.0 0 16.0 7.46875l-1.078125 6.9375q-6.390625 57.59375 -6.390625 112.53125q0 54.9375 3.1875 122.671875q3.203125 67.71875 3.203125 99.71875q0 43.203125 -33.328125 74.40625q-33.328125 31.203125 -79.203125 33.859375q-9.0625 -1.0625 -9.0625 -6.390625q0 -3.734375 2.40625 -5.875q2.390625 -2.125 5.59375 -5.328125q3.203125 -3.203125 11.734375 -16.546875q8.53125 -13.328125 14.921875 -30.125q6.40625 -16.796875 11.734375 -46.65625q5.34375 -29.875 5.34375 -65.078125zm159.99768 -102.390625q-13.859375 0.53125 -20.0 0.796875q-6.125 0.265625 -6.125 -2.921875q0 -3.203125 3.1875 -6.40625q34.140625 -31.46875 115.203125 -31.46875q27.734375 0 43.734375 4.796875l5.328125 1.59375q6.40625 2.671875 6.40625 5.875q0 2.671875 -3.734375 4.265625q-14.40625 4.265625 -27.734375 13.609375q-13.328125 9.328125 -13.328125 13.0625l3.1875 3.734375q17.078125 9.59375 26.40625 30.390625q9.328125 20.796875 10.40625 36.796875l1.0625 16.53125q0 52.8125 -29.34375 86.953125q-29.328125 34.125 -79.984375 34.125q-25.609375 0 -44.28125 -9.078125q-18.65625 -9.0625 -27.453125 -20.53125q-8.796875 -11.46875 -14.140625 -25.859375q-6.390625 -19.734375 -6.390625 -40.796875q0 -21.078125 7.1875 -42.40625q7.203125 -21.328125 16.53125 -31.453125q9.34375 -10.140625 21.078125 -16.546875q14.9375 -8.0 24.0 -8.0q9.0625 0 9.0625 3.734375l-3.203125 5.328125q-11.734375 13.875 -16.796875 36.28125q-5.0625 22.390625 -5.0625 39.734375q0 17.328125 4.265625 34.390625q4.265625 17.0625 9.59375 25.328125q5.34375 8.265625 12.265625 12.53125q10.140625 6.40625 21.328125 6.40625q11.203125 0 21.875 -8.796875q10.671875 -8.796875 15.46875 -23.203125q9.59375 -26.671875 9.59375 -54.9375q0 -44.796875 -22.671875 -69.328125q-22.65625 -24.53125 -66.921875 -24.53125zm223.9978 0q-13.859375 0.53125 -20.0 0.796875q-6.125 0.265625 -6.125 -2.921875q0 -3.203125 3.1875 -6.40625q34.140625 -31.46875 115.203125 -31.46875q27.734375 0 43.734375 4.796875l5.328125 1.59375q6.40625 2.671875 6.40625 5.875q0 2.671875 -3.734375 4.265625q-14.40625 4.265625 -27.734375 13.609375q-13.328125 9.328125 -13.328125 13.0625l3.1875 3.734375q17.078125 9.59375 26.40625 30.390625q9.328125 20.796875 10.40625 36.796875l1.0625 16.53125q0 52.8125 -29.34375 86.953125q-29.328125 34.125 -79.984375 34.125q-25.609375 0 -44.28125 -9.078125q-18.65625 -9.0625 -27.453125 -20.53125q-8.796875 -11.46875 -14.140625 -25.859375q-6.390625 -19.734375 -6.390625 -40.796875q0 -21.078125 7.1875 -42.40625q7.203125 -21.328125 16.53125 -31.453125q9.34375 -10.140625 21.078125 -16.546875q14.9375 -8.0 24.0 -8.0q9.0625 0 9.0625 3.734375l-3.203125 5.328125q-11.734375 13.875 -16.796875 36.28125q-5.0625 22.390625 -5.0625 39.734375q0 17.328125 4.265625 34.390625q4.265625 17.0625 9.59375 25.328125q5.34375 8.265625 12.265625 12.53125q10.140625 6.40625 21.328125 6.40625q11.203125 0 21.875 -8.796875q10.671875 -8.796875 15.46875 -23.203125q9.59375 -26.671875 9.59375 -54.9375q0 -44.796875 -22.671875 -69.328125q-22.65625 -24.53125 -66.921875 -24.53125zm170.1322 204.79688q9.59375 -57.59375 9.59375 -138.125q0 -80.546875 -4.796875 -104.546875q0 -6.921875 16.0 -6.921875q24.53125 0 32.53125 18.65625q0.53125 1.609375 2.65625 1.609375q2.140625 0 3.21875 -1.078125q16.53125 -17.0625 51.1875 -17.0625q34.671875 0 54.9375 17.609375q20.265625 17.59375 20.265625 51.1875q0 20.265625 -3.46875 57.609375q-3.453125 37.328125 -3.453125 55.46875q0 43.1875 14.390625 62.390625q2.140625 2.671875 2.140625 5.328125q0 6.9375 -14.9375 6.9375q-66.140625 0 -66.140625 -58.65625q0 -22.40625 10.140625 -62.40625q10.140625 -40.0 10.140625 -60.796875q0 -42.671875 -35.203125 -42.671875q-17.078125 0 -25.875 10.140625q-8.796875 10.125 -9.859375 23.203125q-1.0625 13.0625 -1.0625 49.328125q0 55.46875 3.71875 96.53125l1.078125 11.734375q0 14.9375 -19.46875 23.203125q-19.46875 8.265625 -33.609375 8.265625q-14.125 0 -14.125 -6.9375zm267.73535 -289.0625l-12.8125 -0.53125q-14.390625 0 -18.65625 6.921875q-1.0625 1.609375 -2.671875 1.609375q-6.9375 0 -6.9375 -23.734375q0 -23.734375 7.203125 -30.125q7.203125 -6.40625 25.0625 -6.40625q17.875 0 24.265625 6.140625q6.40625 6.125 6.40625 20.53125q0 14.390625 -4.796875 20.0q-4.796875 5.59375 -17.0625 5.59375zm-42.671875 269.32812l5.875 -124.265625q0 -44.265625 -10.140625 -60.265625q-3.203125 -5.328125 -7.46875 -8.0q-3.203125 -1.0625 -3.203125 -4.265625q0 -9.59375 27.203125 -18.65625q27.203125 -9.078125 39.734375 -9.078125q12.53125 0 13.0625 6.40625q0 10.65625 -2.9375 60.53125q-2.921875 49.859375 -2.921875 104.796875q0 54.9375 6.390625 68.265625q1.609375 2.671875 1.609375 5.328125q0 6.9375 -20.265625 6.9375q-20.265625 0 -41.609375 -10.671875q-5.328125 -2.65625 -5.328125 -17.0625zm150.40515 -119.46875l0.53125 13.34375q0 3.1875 4.265625 3.1875q17.0625 -1.59375 29.859375 -8.796875q12.796875 -7.203125 19.203125 -16.265625q12.796875 -19.734375 13.875 -34.125l0.53125 -6.40625q0 -28.796875 -22.9375 -28.796875q-17.0625 0 -27.734375 14.9375q-17.59375 23.453125 -17.59375 62.921875zm116.265625 70.9375q0 20.265625 -8.28125 35.46875q-8.265625 15.203125 -18.671875 22.40625q-10.390625 7.1875 -24.25 11.453125q-17.609375 5.34375 -33.609375 5.34375q-44.796875 0 -66.125 -33.59375q-21.328125 -33.609375 -21.328125 -85.609375q0 -52.0 26.390625 -92.53125q26.40625 -40.53125 79.203125 -40.53125q48.0 0 65.0625 33.59375q6.9375 12.796875 6.9375 24.265625q0 11.46875 -1.078125 18.140625q-1.0625 6.65625 -7.46875 20.0q-6.390625 13.328125 -17.0625 24.0q-10.65625 10.65625 -33.59375 20.265625q-22.9375 9.59375 -53.859375 12.796875q-4.265625 0 -4.265625 3.734375q0 4.796875 3.453125 14.140625q3.46875 9.328125 7.734375 15.71875q11.734375 14.9375 34.671875 14.9375q22.9375 0 38.9375 -14.9375q8.53125 -8.0 13.859375 -19.734375q2.140625 -4.265625 5.609375 -4.265625q3.46875 0 5.59375 5.875q2.140625 5.859375 2.140625 9.0625z" fill-rule="nonzero"/></g></svg>