<svg version="1.1" viewBox="0.0 0.0 2041.6010498687665 588.0" fill="none" stroke="none" stroke-linecap="square" stroke-miterlimit="10" xmlns:xlink="http://www.w3.org/1999/xlink" xmlns="http://www.w3.org/2000/svg"><clipPath id="p.0"><path d="m0 0l2041.6011 0l0 588.0l-2041.6011 0l0 -588.0z" clip-rule="nonzero"/></clipPath><g clip-path="url(#p.0)"><path fill="#000000" fill-opacity="0.0" d="m0 0l2041.6011 0l0 588.0l-2041.6011 0z" fill-rule="evenodd"/><path fill="#000000" fill-opacity="0.0" d="m-9.162729 0l2050.7717 0l0 596.0l-2050.7717 0z" fill-rule="evenodd"/><path fill="#80dfff" d="m328.8197 213.0l0.40625 50.0l-1.609375 69.203125q0.40625 1.59375 1.203125 1.59375q0.796875 0 1.203125 -0.796875q8.0 -11.203125 19.796875 -11.203125q11.796875 0 11.796875 4.796875q0 15.203125 5.796875 23.40625q5.8125 8.203125 16.40625 8.203125q10.609375 0 20.40625 -14.390625q9.796875 -14.40625 9.796875 -38.40625q0 -8.0 -3.203125 -19.203125q-6.390625 -22.40625 -24.0 -30.0q-12.796875 -5.203125 -41.59375 -5.203125q-3.203125 0 -3.203125 -4.40625q0 -22.390625 8.0 -23.1875q10.796875 0 22.796875 -5.609375q24.0 -11.203125 24.0 -46.0q0 -37.59375 -43.203125 -37.59375l-12.390625 0.796875q-7.203125 1.59375 -8.0 6.0l0 1.203125q-4.40625 16.0 -4.40625 70.796875zm-58.796875 185.59375l0.796875 -4.390625q4.0 -7.203125 6.796875 -58.59375q2.8125 -51.40625 2.8125 -96.0q0 -44.609375 -1.8125 -71.609375q-1.796875 -27.0 -9.796875 -39.0q-1.59375 -2.0 -1.59375 -4.796875q0 -2.796875 4.796875 -4.796875q32.796875 -12.8125 89.203125 -12.8125q14.0 0 30.390625 3.8125q16.40625 3.796875 27.0 9.40625q10.609375 5.59375 19.203125 17.1875q8.609375 11.59375 9.796875 27.59375q0 58.0 -48.0 66.8125q-2.390625 0.796875 -2.390625 1.796875q0 1.0 2.0 2.203125q24.796875 4.0 41.59375 20.0q8.40625 7.59375 15.203125 23.59375q6.796875 16.0 6.796875 36.796875q0 26.796875 -15.59375 50.796875q-12.796875 19.609375 -37.203125 28.0q-13.59375 4.8125 -30.40625 4.8125q-42.0 0 -53.1875 -26.8125q-0.40625 -1.1875 -1.203125 -1.1875l-1.609375 1.59375q-8.390625 28.0 -48.0 29.203125q-5.59375 0 -5.59375 -3.609375zm341.99377 -125.59375l-0.796875 51.203125q0 53.203125 11.609375 64.0q1.59375 1.59375 1.59375 3.59375q0 6.0 -25.796875 6.0q-25.796875 0 -27.40625 -15.203125q-0.390625 -3.59375 -0.390625 -14.796875l1.59375 -64.0q0 -2.796875 -3.203125 -2.796875q-19.203125 0 -36.0 10.796875q-16.796875 10.796875 -16.796875 27.609375q0 8.796875 4.796875 14.796875q4.796875 6.0 11.796875 6.0q7.0 0 11.59375 -2.796875q4.609375 -2.8125 5.40625 -3.203125q6.8125 0.796875 6.8125 14.203125q0 13.390625 -12.40625 21.59375q-12.40625 8.203125 -26.0 8.203125q-13.59375 0 -23.40622 -4.8125q-9.796875 -4.796875 -14.203125 -10.796875q-4.390625 -6.0 -7.1875 -13.59375q-2.796875 -9.203125 -2.796875 -16.0q0 -28.0 17.59375 -44.796875q17.59372 -16.796875 45.203094 -24.0q36.390625 -7.203125 38.0 -13.203125q1.203125 -4.40625 1.203125 -14.796875q0 -21.203125 -21.609375 -21.203125q-9.203125 0 -16.40625 5.796875q-7.1875 5.796875 -7.1875 14.609375l2.390625 9.59375q-0.796875 6.796875 -14.390625 8.0l-4.40625 0.40625q-11.9999695 0 -18.99997 -6.0q-7.0 -6.0 -7.0 -16.0q0 -6.40625 4.203125 -14.203125q4.203125 -7.796875 10.59375 -12.59375q6.4062195 -4.8125 19.796844 -8.609375q13.40625 -3.796875 25.796875 -3.796875q12.40625 0 19.203125 0.796875q6.8125 0.796875 18.609375 3.796875q11.796875 3.0 19.59375 11.40625q7.8125 8.390625 8.40625 17.796875q0.59375 9.40625 0.59375 27.0zm105.203186 -18.0l-9.203125 2.40625q-7.1875 0 -7.1875 -13.40625q0 -13.40625 9.796875 -21.59375q9.796875 -8.203125 25.0 -8.203125q8.390625 0 17.984375 5.0q9.609375 5.0 16.0 12.40625q6.40625 7.390625 11.40625 23.1875q5.0 15.796875 5.0 37.0q0 48.796875 -26.203125 79.203125q-26.1875 30.40625 -75.796875 30.40625q-14.390625 0 -28.390625 -2.8125l-4.0 -0.796875q-5.203125 -1.59375 -6.0 -5.59375q-1.203125 -8.40625 -1.203125 -39.609375l2.40625 -129.59375q0 -30.0 -1.609375 -46.0l-0.796875 -5.59375q-0.796875 -11.203125 -4.609375 -19.203125q-3.796875 -8.0 -7.390625 -10.40625l-3.203125 -2.0q-2.796875 -1.59375 -2.796875 -3.59375q0 -6.0 20.0 -14.203125q20.0 -8.203125 29.203125 -8.203125q9.203125 0 9.59375 4.796875q2.796875 24.40625 2.796875 69.609375l-2.0 96.0q0 62.796875 3.609375 86.796875q0.390625 5.59375 12.59375 5.59375q12.203125 0 21.0 -6.796875q8.796875 -6.796875 13.203125 -18.0q8.0 -20.390625 8.0 -45.203125q0 -11.59375 -3.203125 -25.1875q-5.59375 -26.40625 -24.0 -26.40625zm220.39691 18.0l-0.796875 51.203125q0 53.203125 11.609375 64.0q1.59375 1.59375 1.59375 3.59375q0 6.0 -25.796875 6.0q-25.796875 0 -27.40625 -15.203125q-0.390625 -3.59375 -0.390625 -14.796875l1.59375 -64.0q0 -2.796875 -3.203125 -2.796875q-19.203125 0 -36.0 10.796875q-16.796875 10.796875 -16.796875 27.609375q0 8.796875 4.796875 14.796875q4.796875 6.0 11.796875 6.0q7.0 0 11.59375 -2.796875q4.609375 -2.8125 5.40625 -3.203125q6.8125 0.796875 6.8125 14.203125q0 13.390625 -12.40625 21.59375q-12.40625 8.203125 -26.0 8.203125q-13.59375 0 -23.40625 -4.8125q-9.796875 -4.796875 -14.203125 -10.796875q-4.390625 -6.0 -7.1875 -13.59375q-2.796875 -9.203125 -2.796875 -16.0q0 -28.0 17.59375 -44.796875q17.59375 -16.796875 45.203125 -24.0q36.390625 -7.203125 38.0 -13.203125q1.203125 -4.40625 1.203125 -14.796875q0 -21.203125 -21.609375 -21.203125q-9.203125 0 -16.40625 5.796875q-7.1875 5.796875 -7.1875 14.609375l2.390625 9.59375q-0.796875 6.796875 -14.390625 8.0l-4.40625 0.40625q-12.0 0 -19.0 -6.0q-7.0 -6.0 -7.0 -16.0q0 -6.40625 4.203125 -14.203125q4.203125 -7.796875 10.59375 -12.59375q6.40625 -4.8125 19.796875 -8.609375q13.40625 -3.796875 25.796875 -3.796875q12.40625 0 19.203125 0.796875q6.8125 0.796875 18.609375 3.796875q11.796875 3.0 19.59375 11.40625q7.8125 8.390625 8.40625 17.796875q0.59375 9.40625 0.59375 27.0zm42.40625 46.0l0.796875 -80.796875q0 -94.796875 -9.203125 -107.203125q-4.390625 -5.59375 -4.390625 -7.796875q0 -2.203125 5.390625 -5.203125q5.40625 -3.0 21.0 -6.59375q15.609375 -3.609375 27.609375 -3.609375q12.0 0 12.0 5.609375l-0.796875 5.1875q-4.8125 43.203125 -4.8125 84.40625q0 41.203125 2.40625 92.0q2.40625 50.796875 2.40625 74.796875q0 32.40625 -25.0 55.796875q-25.0 23.40625 -59.40625 25.40625q-6.796875 -0.796875 -6.796875 -4.796875q0 -2.796875 1.796875 -4.40625q1.796875 -1.59375 4.203125 -4.0q2.390625 -2.390625 8.796875 -12.390625q6.40625 -10.0 11.203125 -22.609375q4.796875 -12.59375 8.796875 -34.984375q4.0 -22.40625 4.0 -48.8125zm120.003174 -76.796875q-10.40625 0.390625 -15.015625 0.59375q-4.59375 0.203125 -4.59375 -2.1875q0 -2.40625 2.40625 -4.8125q25.59375 -23.59375 86.40625 -23.59375q20.796875 0 32.796875 3.59375l4.0 1.203125q4.796875 2.0 4.796875 4.40625q0 2.0 -2.796875 3.1875q-10.796875 3.203125 -20.796875 10.203125q-10.0 7.0 -10.0 9.796875l2.390625 2.8125q12.796875 7.1875 19.796875 22.796875q7.0 15.59375 7.8125 27.59375l0.796875 12.40625q0 39.59375 -22.0 65.203125q-22.0 25.59375 -60.0 25.59375q-19.203125 0 -33.203125 -6.796875q-14.0 -6.796875 -20.609375 -15.390625q-6.59375 -8.609375 -10.59375 -19.40625q-4.796875 -14.8125 -4.796875 -30.609375q0 -15.796875 5.390625 -31.796875q5.40625 -16.0 12.40625 -23.59375q7.0 -7.609375 15.796875 -12.40625q11.203125 -6.0 18.0 -6.0q6.8125 0 6.8125 2.796875l-2.40625 4.0q-8.796875 10.40625 -12.609375 27.203125q-3.796875 16.796875 -3.796875 29.796875q0 13.0 3.203125 25.8125q3.203125 12.796875 7.203125 19.0q4.0 6.1875 9.203125 9.390625q7.59375 4.796875 15.984375 4.796875q8.40625 0 16.40625 -6.59375q8.0 -6.609375 11.609375 -17.40625q7.203125 -20.0 7.203125 -41.203125q0 -33.59375 -17.0 -51.984375q-17.0 -18.40625 -50.203125 -18.40625zm168.00012 0q-10.40625 0.390625 -15.015625 0.59375q-4.59375 0.203125 -4.59375 -2.1875q0 -2.40625 2.40625 -4.8125q25.59375 -23.59375 86.40625 -23.59375q20.796875 0 32.796875 3.59375l4.0 1.203125q4.796875 2.0 4.796875 4.40625q0 2.0 -2.796875 3.1875q-10.796875 3.203125 -20.796875 10.203125q-10.0 7.0 -10.0 9.796875l2.390625 2.8125q12.796875 7.1875 19.796875 22.796875q7.0 15.59375 7.8125 27.59375l0.796875 12.40625q0 39.59375 -22.0 65.203125q-22.0 25.59375 -60.0 25.59375q-19.203125 0 -33.203125 -6.796875q-14.0 -6.796875 -20.609375 -15.390625q-6.59375 -8.609375 -10.59375 -19.40625q-4.796875 -14.8125 -4.796875 -30.609375q0 -15.796875 5.390625 -31.796875q5.40625 -16.0 12.40625 -23.59375q7.0 -7.609375 15.796875 -12.40625q11.203125 -6.0 18.0 -6.0q6.8125 0 6.8125 2.796875l-2.40625 4.0q-8.796875 10.40625 -12.609375 27.203125q-3.796875 16.796875 -3.796875 29.796875q0 13.0 3.203125 25.8125q3.203125 12.796875 7.203125 19.0q4.0 6.1875 9.203125 9.390625q7.59375 4.796875 15.984375 4.796875q8.40625 0 16.40625 -6.59375q8.0 -6.609375 11.609375 -17.40625q7.203125 -20.0 7.203125 -41.203125q0 -33.59375 -17.0 -51.984375q-17.0 -18.40625 -50.203125 -18.40625zm127.596924 153.59375q7.203125 -43.203125 7.203125 -103.59375q0 -60.40625 -3.609375 -78.40625q0 -5.203125 12.0 -5.203125q18.40625 0 24.40625 14.0q0.40625 1.203125 2.0 1.203125q1.59375 0 2.40625 -0.796875q12.390625 -12.796875 38.390625 -12.796875q26.0 0 41.203125 13.203125q15.203125 13.1875 15.203125 38.390625q0 15.203125 -2.609375 43.203125q-2.59375 28.0 -2.59375 41.59375q0 32.40625 10.796875 46.8125q1.609375 2.0 1.609375 4.0q0 5.1875 -11.203125 5.1875q-49.609375 0 -49.609375 -44.0q0 -16.796875 7.59375 -46.796875q7.609375 -30.0 7.609375 -45.59375q0 -32.0 -26.390625 -32.0q-12.8125 0 -19.40625 7.609375q-6.59375 7.59375 -7.40625 17.390625q-0.796875 9.796875 -0.796875 37.0q0 41.59375 2.796875 72.390625l0.8125 8.8125q0 11.1875 -14.609375 17.390625q-14.59375 6.203125 -25.203125 6.203125q-10.59375 0 -10.59375 -5.203125zm200.80322 -216.79688l-9.609375 -0.40625q-10.796875 0 -14.0 5.203125q-0.796875 1.203125 -2.0 1.203125q-5.1875 0 -5.1875 -17.796875q0 -17.796875 5.390625 -22.59375q5.40625 -4.8125 18.796875 -4.8125q13.40625 0 18.203125 4.609375q4.796875 4.59375 4.796875 15.390625q0 10.796875 -3.59375 15.0q-3.59375 4.203125 -12.796875 4.203125zm-32.0 202.0l4.390625 -93.203125q0 -33.203125 -7.59375 -45.203125q-2.40625 -4.0 -5.59375 -6.0q-2.40625 -0.796875 -2.40625 -3.1875q0 -7.203125 20.390625 -14.0q20.40625 -6.8125 29.796875 -6.8125q9.40625 0 9.8125 4.8125q0 8.0 -2.203125 45.40625q-2.203125 37.390625 -2.203125 78.59375q0 41.1875 4.8125 51.1875q1.1875 2.0 1.1875 4.0q0 5.203125 -15.203125 5.203125q-15.1875 0 -31.1875 -8.0q-4.0 -2.0 -4.0 -12.796875zm112.796875 -89.59375l0.40625 10.0q0 2.390625 3.1875 2.390625q12.8125 -1.203125 22.40625 -6.59375q9.59375 -5.40625 14.40625 -12.203125q9.59375 -14.796875 10.390625 -25.59375l0.40625 -4.8125q0 -21.59375 -17.203125 -21.59375q-12.796875 0 -20.796875 11.203125q-13.203125 17.59375 -13.203125 47.203125zm87.203125 53.1875q0 15.203125 -6.203125 26.609375q-6.203125 11.390625 -14.0 16.796875q-7.796875 5.40625 -18.203125 8.59375q-13.203125 4.0 -25.203125 4.0q-33.59375 0 -49.59375 -25.1875q-16.0 -25.203125 -16.0 -64.203125q0 -39.0 19.796875 -69.390625q19.796875 -30.40625 59.40625 -30.40625q36.0 0 48.796875 25.1875q5.203125 9.609375 5.203125 18.21875q0 8.59375 -0.8125 13.59375q-0.796875 5.0 -5.59375 15.0q-4.796875 10.0 -12.796875 18.0q-8.0 8.0 -25.203125 15.203125q-17.203125 7.1875 -40.390625 9.59375q-3.203125 0 -3.203125 2.796875q0 3.59375 2.59375 10.59375q2.609375 7.0 5.796875 11.8125q8.8125 11.1875 26.0 11.1875q17.203125 0 29.203125 -11.1875q6.40625 -6.0 10.40625 -14.8125q1.59375 -3.1875 4.1875 -3.1875q2.609375 0 4.203125 4.40625q1.609375 4.390625 1.609375 6.78125z" fill-rule="nonzero"/></g></svg>