<svg version="1.1" viewBox="0.0 0.0 1404.0 248.0" fill="none" stroke="none" stroke-linecap="square" stroke-miterlimit="10" xmlns:xlink="http://www.w3.org/1999/xlink" xmlns="http://www.w3.org/2000/svg"><clipPath id="p.0"><path d="m0 0l1404.0 0l0 248.0l-1404.0 0l0 -248.0z" clip-rule="nonzero"/></clipPath><g clip-path="url(#p.0)"><path fill="#000000" fill-opacity="0.0" d="m0 0l1404.0 0l0 248.0l-1404.0 0z" fill-rule="evenodd"/><path fill="#000000" fill-opacity="0.0" d="m0 0l1404.0 0l0 248.0l-1404.0 0z" fill-rule="evenodd"/><path fill="#80dfff" d="m472.87018 77.0l0.140625 16.671875l-0.53125 23.0625q0.125 0.53125 0.390625 0.53125q0.265625 0 0.40625 -0.265625q2.671875 -3.734375 6.59375 -3.734375q3.9375 0 3.9375 1.609375q0 5.0625 1.9375 7.796875q1.9375 2.734375 5.46875 2.734375q3.53125 0 6.796875 -4.796875q3.265625 -4.8125 3.265625 -12.8125q0 -2.65625 -1.0625 -6.390625q-2.140625 -7.46875 -8.0 -10.0q-4.265625 -1.734375 -13.875 -1.734375q-1.0625 0 -1.0625 -1.46875q0 -7.46875 2.671875 -7.734375q3.59375 0 7.59375 -1.859375q8.0 -3.734375 8.0 -15.34375q0 -12.53125 -14.40625 -12.53125l-4.125 0.265625q-2.40625 0.53125 -2.671875 2.0l0 0.40625q-1.46875 5.328125 -1.46875 23.59375zm-19.59375 61.859375l0.265625 -1.453125q1.328125 -2.40625 2.265625 -19.53125q0.9375 -17.140625 0.9375 -32.0q0 -14.875 -0.609375 -23.875q-0.59375 -9.0 -3.265625 -13.0q-0.53125 -0.65625 -0.53125 -1.59375q0 -0.9375 1.609375 -1.609375q10.921875 -4.265625 29.734375 -4.265625q4.65625 0 10.125 1.265625q5.46875 1.265625 9.0 3.140625q3.53125 1.859375 6.390625 5.734375q2.875 3.859375 3.28125 9.203125q0 19.328125 -16.0 22.265625q-0.8125 0.265625 -0.8125 0.59375q0 0.328125 0.671875 0.734375q8.265625 1.328125 13.875 6.671875q2.796875 2.53125 5.0625 7.859375q2.265625 5.328125 2.265625 12.265625q0 8.9375 -5.203125 16.9375q-4.265625 6.53125 -12.390625 9.328125q-4.546875 1.609375 -10.140625 1.609375q-14.0 0 -17.734375 -8.9375q-0.125 -0.40625 -0.390625 -0.40625l-0.546875 0.53125q-2.796875 9.34375 -16.0 9.734375q-1.859375 0 -1.859375 -1.203125zm113.99524 -41.859375l-0.265625 17.0625q0 17.734375 3.859375 21.34375q0.546875 0.53125 0.546875 1.1875q0 2.0 -8.609375 2.0q-8.59375 0 -9.125 -5.0625q-0.140625 -1.203125 -0.140625 -4.9375l0.53125 -21.328125q0 -0.9375 -1.0625 -0.9375q-6.40625 0 -12.0 3.609375q-5.59375 3.59375 -5.59375 9.203125q0 2.921875 1.59375 4.921875q1.59375 2.0 3.921875 2.0q2.34375 0 3.875 -0.921875q1.53125 -0.9375 1.796875 -1.078125q2.265625 0.265625 2.265625 4.734375q0 4.46875 -4.140625 7.203125q-4.125 2.734375 -8.65625 2.734375q-4.53125 0 -7.796875 -1.609375q-3.265625 -1.59375 -4.734375 -3.59375q-1.46875 -2.0 -2.390625 -4.53125q-0.9375 -3.0625 -0.9375 -5.328125q0 -9.34375 5.859375 -14.9375q5.875 -5.59375 15.078125 -8.0q12.125 -2.40625 12.65625 -4.40625q0.40625 -1.453125 0.40625 -4.921875q0 -7.078125 -7.203125 -7.078125q-3.0625 0 -5.46875 1.9375q-2.390625 1.9375 -2.390625 4.875l0.796875 3.1875q-0.265625 2.265625 -4.796875 2.671875l-1.46875 0.140625q-4.0 0 -6.34375 -2.0q-2.328125 -2.0 -2.328125 -5.34375q0 -2.125 1.390625 -4.71875q1.40625 -2.609375 3.53125 -4.203125q2.140625 -1.609375 6.609375 -2.875q4.46875 -1.265625 8.59375 -1.265625q4.140625 0 6.40625 0.265625q2.265625 0.265625 6.203125 1.265625q3.9375 1.0 6.53125 3.8125q2.59375 2.796875 2.796875 5.9375q0.203125 3.125 0.203125 8.984375zm35.07086 -6.0l-3.078125 0.796875q-2.390625 0 -2.390625 -4.453125q0 -4.46875 3.265625 -7.203125q3.265625 -2.734375 8.328125 -2.734375q2.796875 0 6.0 1.671875q3.203125 1.65625 5.328125 4.125q2.140625 2.46875 3.796875 7.734375q1.671875 5.265625 1.671875 12.328125q0 16.265625 -8.734375 26.40625q-8.71875 10.125 -25.265625 10.125q-4.796875 0 -9.453125 -0.9375l-1.34375 -0.265625q-1.734375 -0.53125 -2.0 -1.859375q-0.390625 -2.796875 -0.390625 -13.203125l0.796875 -43.203125q0 -10.0 -0.53125 -15.328125l-0.265625 -1.859375q-0.265625 -3.734375 -1.546875 -6.40625q-1.265625 -2.671875 -2.453125 -3.46875l-1.078125 -0.65625q-0.921875 -0.546875 -0.921875 -1.203125q0 -2.0 6.65625 -4.734375q6.671875 -2.734375 9.734375 -2.734375q3.0625 0 3.203125 1.59375q0.9375 8.140625 0.9375 23.203125l-0.671875 32.0q0 20.9375 1.203125 28.9375q0.125 1.859375 4.1875 1.859375q4.078125 0 7.0 -2.265625q2.9375 -2.265625 4.40625 -6.0q2.671875 -6.796875 2.671875 -15.0625q0 -3.875 -1.0625 -8.40625q-1.875 -8.796875 -8.0 -8.796875zm73.45831 6.0l-0.265625 17.0625q0 17.734375 3.859375 21.34375q0.546875 0.53125 0.546875 1.1875q0 2.0 -8.609375 2.0q-8.59375 0 -9.125 -5.0625q-0.140625 -1.203125 -0.140625 -4.9375l0.53125 -21.328125q0 -0.9375 -1.0625 -0.9375q-6.40625 0 -12.0 3.609375q-5.59375 3.59375 -5.59375 9.203125q0 2.921875 1.59375 4.921875q1.59375 2.0 3.921875 2.0q2.34375 0 3.875 -0.921875q1.53125 -0.9375 1.796875 -1.078125q2.265625 0.265625 2.265625 4.734375q0 4.46875 -4.140625 7.203125q-4.125 2.734375 -8.65625 2.734375q-4.53125 0 -7.796875 -1.609375q-3.265625 -1.59375 -4.734375 -3.59375q-1.46875 -2.0 -2.390625 -4.53125q-0.9375 -3.0625 -0.9375 -5.328125q0 -9.34375 5.859375 -14.9375q5.875 -5.59375 15.078125 -8.0q12.125 -2.40625 12.65625 -4.40625q0.40625 -1.453125 0.40625 -4.921875q0 -7.078125 -7.203125 -7.078125q-3.0625 0 -5.46875 1.9375q-2.390625 1.9375 -2.390625 4.875l0.796875 3.1875q-0.265625 2.265625 -4.796875 2.671875l-1.46875 0.140625q-4.0 0 -6.34375 -2.0q-2.328125 -2.0 -2.328125 -5.34375q0 -2.125 1.390625 -4.71875q1.40625 -2.609375 3.53125 -4.203125q2.140625 -1.609375 6.609375 -2.875q4.46875 -1.265625 8.59375 -1.265625q4.140625 0 6.40625 0.265625q2.265625 0.265625 6.203125 1.265625q3.9375 1.0 6.53125 3.8125q2.59375 2.796875 2.796875 5.9375q0.203125 3.125 0.203125 8.984375zm14.133362 15.328125l0.265625 -26.921875q0 -31.609375 -3.0625 -35.734375q-1.46875 -1.875 -1.46875 -2.59375q0 -0.734375 1.796875 -1.734375q1.796875 -1.0 7.0 -2.203125q5.203125 -1.203125 9.203125 -1.203125q4.0 0 4.0 1.859375l-0.265625 1.734375q-1.609375 14.40625 -1.609375 28.140625q0 13.734375 0.796875 30.671875q0.8125 16.921875 0.8125 24.921875q0 10.796875 -8.34375 18.59375q-8.328125 7.8125 -19.796875 8.46875q-2.265625 -0.265625 -2.265625 -1.59375q0 -0.9375 0.609375 -1.46875q0.59375 -0.53125 1.390625 -1.34375q0.796875 -0.796875 2.9375 -4.125q2.140625 -3.328125 3.734375 -7.53125q1.59375 -4.203125 2.921875 -11.65625q1.34375 -7.46875 1.34375 -16.28125zm39.994568 -25.59375q-3.46875 0.140625 -5.0 0.203125q-1.53125 0.0625 -1.53125 -0.734375q0 -0.796875 0.796875 -1.59375q8.53125 -7.875 28.796875 -7.875q6.9375 0 10.9375 1.203125l1.328125 0.390625q1.609375 0.671875 1.609375 1.46875q0 0.671875 -0.9375 1.078125q-3.59375 1.0625 -6.9375 3.40625q-3.328125 2.328125 -3.328125 3.25l0.796875 0.9375q4.265625 2.40625 6.59375 7.609375q2.34375 5.1875 2.609375 9.1875l0.265625 4.140625q0 13.1875 -7.328125 21.734375q-7.328125 8.53125 -20.0 8.53125q-6.40625 0 -11.078125 -2.265625q-4.65625 -2.265625 -6.859375 -5.125q-2.203125 -2.875 -3.53125 -6.484375q-1.59375 -4.921875 -1.59375 -10.1875q0 -5.28125 1.796875 -10.609375q1.796875 -5.328125 4.125 -7.859375q2.34375 -2.53125 5.265625 -4.140625q3.734375 -2.0 6.0 -2.0q2.265625 0 2.265625 0.9375l-0.796875 1.328125q-2.921875 3.46875 -4.203125 9.078125q-1.265625 5.59375 -1.265625 9.921875q0 4.328125 1.0625 8.609375q1.078125 4.265625 2.40625 6.328125q1.34375 2.0625 3.078125 3.125q2.53125 1.609375 5.328125 1.609375q2.796875 0 5.453125 -2.203125q2.671875 -2.203125 3.875 -5.796875q2.40625 -6.671875 2.40625 -13.734375q0 -11.203125 -5.671875 -17.328125q-5.671875 -6.140625 -16.734375 -6.140625zm55.997864 0q-3.46875 0.140625 -5.0 0.203125q-1.53125 0.0625 -1.53125 -0.734375q0 -0.796875 0.796875 -1.59375q8.53125 -7.875 28.796875 -7.875q6.9375 0 10.9375 1.203125l1.328125 0.390625q1.609375 0.671875 1.609375 1.46875q0 0.671875 -0.9375 1.078125q-3.59375 1.0625 -6.9375 3.40625q-3.328125 2.328125 -3.328125 3.25l0.796875 0.9375q4.265625 2.40625 6.59375 7.609375q2.34375 5.1875 2.609375 9.1875l0.265625 4.140625q0 13.1875 -7.328125 21.734375q-7.328125 8.53125 -20.0 8.53125q-6.40625 0 -11.078125 -2.265625q-4.65625 -2.265625 -6.859375 -5.125q-2.203125 -2.875 -3.53125 -6.484375q-1.59375 -4.921875 -1.59375 -10.1875q0 -5.28125 1.796875 -10.609375q1.796875 -5.328125 4.125 -7.859375q2.34375 -2.53125 5.265625 -4.140625q3.734375 -2.0 6.0 -2.0q2.265625 0 2.265625 0.9375l-0.796875 1.328125q-2.921875 3.46875 -4.203125 9.078125q-1.265625 5.59375 -1.265625 9.921875q0 4.328125 1.0625 8.609375q1.078125 4.265625 2.40625 6.328125q1.34375 2.0625 3.078125 3.125q2.53125 1.609375 5.328125 1.609375q2.796875 0 5.453125 -2.203125q2.671875 -2.203125 3.875 -5.796875q2.40625 -6.671875 2.40625 -13.734375q0 -11.203125 -5.671875 -17.328125q-5.671875 -6.140625 -16.734375 -6.140625zm42.53534 51.203125q2.40625 -14.40625 2.40625 -34.53125q0 -20.140625 -1.203125 -26.140625q0 -1.734375 4.0 -1.734375q6.125 0 8.125 4.671875q0.140625 0.40625 0.671875 0.40625q0.53125 0 0.796875 -0.28125q4.140625 -4.265625 12.796875 -4.265625q8.671875 0 13.734375 4.40625q5.0625 4.40625 5.0625 12.796875q0 5.0625 -0.859375 14.40625q-0.859375 9.328125 -0.859375 13.859375q0 10.796875 3.59375 15.609375q0.53125 0.65625 0.53125 1.328125q0 1.734375 -3.734375 1.734375q-16.53125 0 -16.53125 -14.671875q0 -5.59375 2.53125 -15.59375q2.53125 -10.0 2.53125 -15.203125q0 -10.671875 -8.796875 -10.671875q-4.265625 0 -6.46875 2.546875q-2.203125 2.53125 -2.46875 5.796875q-0.265625 3.265625 -0.265625 12.328125q0 13.859375 0.9375 24.125l0.265625 2.9375q0 3.734375 -4.875 5.796875q-4.859375 2.078125 -8.390625 2.078125q-3.53125 0 -3.53125 -1.734375zm66.93231 -72.265625l-3.203125 -0.140625q-3.59375 0 -4.671875 1.734375q-0.265625 0.40625 -0.65625 0.40625q-1.734375 0 -1.734375 -5.9375q0 -5.9375 1.796875 -7.53125q1.796875 -1.59375 6.265625 -1.59375q4.46875 0 6.0625 1.53125q1.609375 1.53125 1.609375 5.140625q0 3.59375 -1.203125 5.0q-1.203125 1.390625 -4.265625 1.390625zm-10.671875 67.328125l1.46875 -31.0625q0 -11.0625 -2.53125 -15.0625q-0.796875 -1.34375 -1.859375 -2.0q-0.8125 -0.265625 -0.8125 -1.078125q0 -2.390625 6.796875 -4.65625q6.8125 -2.265625 9.9375 -2.265625q3.140625 0 3.265625 1.59375q0 2.671875 -0.734375 15.140625q-0.734375 12.453125 -0.734375 26.1875q0 13.734375 1.609375 17.0625q0.390625 0.671875 0.390625 1.34375q0 1.734375 -5.0625 1.734375q-5.0625 0 -10.390625 -2.671875q-1.34375 -0.671875 -1.34375 -4.265625zm37.608276 -29.859375l0.125 3.328125q0 0.796875 1.0625 0.796875q4.265625 -0.390625 7.46875 -2.1875q3.203125 -1.8125 4.796875 -4.078125q3.203125 -4.9375 3.46875 -8.53125l0.140625 -1.59375q0 -7.203125 -5.734375 -7.203125q-4.265625 0 -6.9375 3.734375q-4.390625 5.859375 -4.390625 15.734375zm29.0625 17.734375q0 5.0625 -2.078125 8.859375q-2.0625 3.796875 -4.65625 5.609375q-2.59375 1.796875 -6.0625 2.859375q-4.40625 1.328125 -8.40625 1.328125q-11.203125 0 -16.53125 -8.390625q-5.328125 -8.40625 -5.328125 -21.40625q0 -13.0 6.59375 -23.125q6.59375 -10.140625 19.796875 -10.140625q12.0 0 16.265625 8.40625q1.734375 3.1875 1.734375 6.0625q0 2.859375 -0.265625 4.53125q-0.265625 1.671875 -1.875 5.0q-1.59375 3.328125 -4.265625 6.0q-2.65625 2.671875 -8.390625 5.078125q-5.734375 2.390625 -13.46875 3.1875q-1.0625 0 -1.0625 0.9375q0 1.203125 0.859375 3.53125q0.875 2.328125 1.9375 3.9375q2.9375 3.71875 8.671875 3.71875q5.734375 0 9.734375 -3.71875q2.125 -2.0 3.453125 -4.9375q0.546875 -1.0625 1.40625 -1.0625q0.875 0 1.40625 1.46875q0.53125 1.453125 0.53125 2.265625z" fill-rule="nonzero"/></g></svg>